<svg width="100%" height="100%" viewBox="0 0 32 32" fill="none" xmlns="http://www.w3.org/2000/svg">
<path d="M16 18.6667C18.2091 18.6667 20 16.8758 20 14.6667C20 12.4575 18.2091 10.6667 16 10.6667C13.7909 10.6667 12 12.4575 12 14.6667C12 16.8758 13.7909 18.6667 16 18.6667Z" stroke="#6B7280" stroke-width="1.5" stroke-linecap="round" stroke-linejoin="round"/>
<path d="M23.5426 22.2093L17.8853 27.8667C17.3852 28.3662 16.7074 28.6467 16.0006 28.6467C15.2938 28.6467 14.6159 28.3662 14.1159 27.8667L8.45726 22.2093C6.96555 20.7175 5.9497 18.8169 5.53817 16.7478C5.12664 14.6787 5.33791 12.534 6.14526 10.585C6.95261 8.6359 8.31979 6.97003 10.0739 5.79799C11.828 4.62594 13.8903 4.00037 15.9999 4.00037C18.1096 4.00037 20.1718 4.62594 21.9259 5.79799C23.6801 6.97003 25.0472 8.6359 25.8546 10.585C26.6619 12.534 26.8732 14.6787 26.4617 16.7478C26.0501 18.8169 25.0343 20.7175 23.5426 22.2093V22.2093Z" stroke="#6B7280" stroke-width="1.5" stroke-linecap="round" stroke-linejoin="round"/>
</svg>
