<svg width="100%" height="100%" viewBox="0 0 24 24" fill="none" xmlns="http://www.w3.org/2000/svg">
<g clip-path="url(#clip0)">
<path d="M2.66699 0H21.3186V1.86516H2.66699V0Z" fill="currentColor"/>
<path d="M20.386 3.73035H13.2261L11.9927 6.81429L10.7589 3.73035H3.5995C2.05651 3.73035 0.801758 4.9851 0.801758 6.52809V11.191H2.66692V10.2584C2.66692 9.74409 3.08517 9.32584 3.5995 9.32584H6.22808L11.9927 24.0001L17.7576 9.32584H20.386C20.9003 9.32584 21.3186 9.74409 21.3186 10.2584V11.191H23.1837V6.52809C23.1837 4.9851 21.929 3.73035 20.386 3.73035ZM20.386 7.46068H16.4865L11.9927 18.8987L7.49923 7.46068H3.5995C3.27278 7.46068 2.95881 7.51714 2.66692 7.62051V6.52809C2.66692 6.01376 3.08517 5.59551 3.5995 5.59551H9.49622L11.9927 11.8374L14.4893 5.59551H20.386C20.9003 5.59551 21.3186 6.01376 21.3186 6.52809V7.62051C21.0267 7.51714 20.7129 7.46068 20.386 7.46068Z" fill="currentColor"/>
</g>
<defs>
<clipPath id="clip0">
<rect width="24" height="24" fill="currentColor"/>
</clipPath>
</defs>
</svg>
