<svg width="32" height="32" viewBox="0 0 32 32" fill="none" xmlns="http://www.w3.org/2000/svg">
<path d="M8.00004 28C9.4728 28 10.6667 26.8061 10.6667 25.3333C10.6667 23.8605 9.4728 22.6666 8.00004 22.6666C6.52728 22.6666 5.33337 23.8605 5.33337 25.3333C5.33337 26.8061 6.52728 28 8.00004 28Z" stroke="currentColor" stroke-width="1.5" stroke-linecap="round" stroke-linejoin="round"/>
<path d="M22.6667 28C24.1394 28 25.3333 26.8061 25.3333 25.3333C25.3333 23.8605 24.1394 22.6666 22.6667 22.6666C21.1939 22.6666 20 23.8605 20 25.3333C20 26.8061 21.1939 28 22.6667 28Z" stroke="currentColor" stroke-width="1.5" stroke-linecap="round" stroke-linejoin="round"/>
<path d="M22.6667 22.6667H8.00004V4H5.33337" stroke="currentColor" stroke-width="1.5" stroke-linecap="round" stroke-linejoin="round"/>
<path d="M8 6.66663L26.6667 7.99996L25.3333 17.3333H8" stroke="currentColor" stroke-width="1.5" stroke-linecap="round" stroke-linejoin="round"/>
</svg>
