<svg width="32" height="32" viewBox="0 0 32 32" fill="none" xmlns="http://www.w3.org/2000/svg">
<path d="M10.6667 5.33337H8.00004C6.52728 5.33337 5.33337 6.52728 5.33337 8.00004V9.33337C5.33337 10.8061 6.52728 12 8.00004 12H10.6667C12.1395 12 13.3334 10.8061 13.3334 9.33337V8.00004C13.3334 6.52728 12.1395 5.33337 10.6667 5.33337Z" stroke="currentColor" stroke-width="1.5" stroke-linecap="round" stroke-linejoin="round"/>
<path d="M10.6667 17.3334H8.00004C6.52728 17.3334 5.33337 18.5273 5.33337 20V24C5.33337 25.4728 6.52728 26.6667 8.00004 26.6667H10.6667C12.1395 26.6667 13.3334 25.4728 13.3334 24V20C13.3334 18.5273 12.1395 17.3334 10.6667 17.3334Z" stroke="currentColor" stroke-width="1.5" stroke-linecap="round" stroke-linejoin="round"/>
<path d="M24 5.33337H21.3333C19.8605 5.33337 18.6666 6.52728 18.6666 8.00004V12C18.6666 13.4728 19.8605 14.6667 21.3333 14.6667H24C25.4727 14.6667 26.6666 13.4728 26.6666 12V8.00004C26.6666 6.52728 25.4727 5.33337 24 5.33337Z" stroke="currentColor" stroke-width="1.5" stroke-linecap="round" stroke-linejoin="round"/>
<path d="M24 20H21.3333C19.8605 20 18.6666 21.1939 18.6666 22.6667V24C18.6666 25.4728 19.8605 26.6667 21.3333 26.6667H24C25.4727 26.6667 26.6666 25.4728 26.6666 24V22.6667C26.6666 21.1939 25.4727 20 24 20Z" stroke="currentColor" stroke-width="1.5" stroke-linecap="round" stroke-linejoin="round"/>
</svg>
