<svg width="130" height="129" viewBox="0 0 130 129" fill="none" xmlns="http://www.w3.org/2000/svg">
<g clip-path="url(#clip0)">
<path d="M59.971 87.2025C60.9633 86.225 60.9633 84.6429 59.971 83.6654C58.9777 82.6908 57.3686 82.6908 56.3743 83.6654C55.383 84.6429 55.383 86.225 56.3743 87.2025C57.3686 88.1771 58.9777 88.1771 59.971 87.2025Z" fill="#374151"/>
<path d="M47.9324 27.8782C47.9324 43.0374 60.4765 55.3714 75.8952 55.3714C91.3138 55.3714 103.858 43.0374 103.858 27.8782C103.858 12.719 91.3138 0.385986 75.8952 0.385986C60.4765 0.385986 47.9324 12.719 47.9324 27.8782ZM98.7743 27.8782C98.7743 40.2815 88.5108 50.3723 75.8952 50.3723C63.2795 50.3723 53.016 40.2815 53.016 27.8782C53.016 15.4758 63.2795 5.38501 75.8952 5.38501C88.5108 5.38501 98.7743 15.4758 98.7743 27.8782Z" fill="#374151"/>
<path d="M29.4217 127.647C30.4071 128.623 32.0112 128.634 33.0094 127.667L45.334 115.73C47.4279 113.671 48.0646 110.623 47.1438 107.974L49.7949 105.46C51.2222 104.105 53.1015 103.358 55.088 103.358H88.8824C94.8778 103.358 100.544 101.094 104.84 96.9835C105.017 96.8146 103.498 98.5734 127.895 69.9054C131.514 65.6964 130.973 59.3761 126.688 55.8146C122.429 52.2863 116.051 52.7931 112.422 56.9298L97.4216 72.088C95.5274 69.796 92.6389 68.3673 89.5181 68.3673H61.1709C57.1372 66.7081 52.8571 65.8683 48.441 65.8683C36.1999 65.8683 25.5112 71.4269 19.775 81.8488C17.3584 81.3986 14.8096 82.1173 12.976 83.9201L0.882846 95.8449C-0.104473 96.8185 -0.10646 98.3937 0.878873 99.3703L29.4217 127.647ZM48.44 70.8664C52.3337 70.8664 56.0982 71.6369 59.6313 73.1564C59.9531 73.2951 60.2998 73.3664 60.6504 73.3664H89.5181C92.2744 73.3664 94.6027 75.5763 94.6027 78.3644C94.6027 81.1212 92.3221 83.3634 89.5181 83.3634H68.7774C67.3739 83.3634 66.2356 84.4826 66.2356 85.8624C66.2356 87.2433 67.3739 88.3615 68.7774 88.3615H89.5181C95.1251 88.3615 99.6862 83.8771 99.6862 78.3644C99.6862 77.9249 99.6545 77.4894 99.5969 77.0578C114.108 62.3927 116.154 60.3322 116.241 60.2296C118.053 58.1271 121.269 57.8605 123.409 59.6339C125.55 61.4142 125.821 64.5744 124.005 66.6886L101.204 93.4875C97.8745 96.63 93.5031 98.3595 88.8824 98.3595H55.088C51.7765 98.3595 48.6417 99.6046 46.2638 101.863L44.1034 103.913L24.1881 84.3341C28.8426 75.7492 37.5765 70.8664 48.44 70.8664ZM16.5737 87.4523C17.412 86.6281 18.6993 86.4796 19.7214 87.1007C20.1614 87.3644 18.8979 86.2335 41.7394 108.659C42.7555 109.658 42.7009 111.25 41.7533 112.182L31.2464 122.359L6.2684 97.6134L16.5737 87.4523Z" fill="#374151"/>
<path d="M72.8447 12.8832V15.8119C69.8858 16.8431 67.7602 19.6215 67.7602 22.8803C67.7602 27.014 71.181 30.3783 75.3865 30.3783C76.7881 30.3783 77.9283 31.4994 77.9283 32.8773C77.9283 34.2553 76.7881 35.3764 75.3865 35.3764C74.3009 35.3764 73.1278 34.7055 72.0859 33.4857C71.182 32.4291 69.5788 32.2933 68.5041 33.181C67.4294 34.0697 67.2903 35.6459 68.1942 36.7025C69.553 38.2914 71.1512 39.3988 72.8447 39.9574V42.8744C72.8447 44.2553 73.983 45.3734 75.3865 45.3734C76.79 45.3734 77.9283 44.2553 77.9283 42.8744V39.9457C80.8873 38.9135 83.0129 36.1351 83.0129 32.8773C83.0129 28.7426 79.5921 25.3793 75.3865 25.3793C73.985 25.3793 72.8447 24.2582 72.8447 22.8803C72.8447 21.5023 73.985 20.3803 75.3865 20.3803C76.2874 20.3803 77.238 20.8324 78.1359 21.6869C79.1451 22.6469 80.7542 22.6205 81.7306 21.6293C82.707 20.6371 82.6802 19.0551 81.672 18.0951C80.3817 16.8676 79.0905 16.1732 77.9283 15.7943V12.8832C77.9283 11.5023 76.79 10.3832 75.3865 10.3832C73.983 10.3832 72.8447 11.5023 72.8447 12.8832Z" fill="#374151"/>
</g>
<defs>
<clipPath id="clip0">
<rect width="129.937" height="128" fill="white" transform="translate(0.0136719 0.385986)"/>
</clipPath>
</defs>
</svg>
