<svg width="32" height="32" viewBox="0 0 32 32" fill="none" xmlns="http://www.w3.org/2000/svg">
<path d="M12 6.66663H9.33329C8.62605 6.66663 7.94777 6.94758 7.44767 7.44767C6.94758 7.94777 6.66663 8.62605 6.66663 9.33329V25.3333C6.66663 26.0405 6.94758 26.7188 7.44767 27.2189C7.94777 27.719 8.62605 28 9.33329 28H22.6666C23.3739 28 24.0521 27.719 24.5522 27.2189C25.0523 26.7188 25.3333 26.0405 25.3333 25.3333V9.33329C25.3333 8.62605 25.0523 7.94777 24.5522 7.44767C24.0521 6.94758 23.3739 6.66663 22.6666 6.66663H20" stroke="currentColor" stroke-width="1.5" stroke-linecap="round" stroke-linejoin="round"/>
<path d="M17.3333 4H14.6667C13.1939 4 12 5.19391 12 6.66667C12 8.13943 13.1939 9.33333 14.6667 9.33333H17.3333C18.8061 9.33333 20 8.13943 20 6.66667C20 5.19391 18.8061 4 17.3333 4Z" stroke="currentColor" stroke-width="1.5" stroke-linecap="round" stroke-linejoin="round"/>
<path d="M18.6667 14.6666H15.3334C14.8029 14.6666 14.2942 14.8773 13.9192 15.2524C13.5441 15.6275 13.3334 16.1362 13.3334 16.6666C13.3334 17.1971 13.5441 17.7058 13.9192 18.0808C14.2942 18.4559 14.8029 18.6666 15.3334 18.6666H16.6667C17.1971 18.6666 17.7058 18.8773 18.0809 19.2524C18.456 19.6275 18.6667 20.1362 18.6667 20.6666C18.6667 21.1971 18.456 21.7058 18.0809 22.0808C17.7058 22.4559 17.1971 22.6666 16.6667 22.6666H13.3334" stroke="currentColor" stroke-width="1.5" stroke-linecap="round" stroke-linejoin="round"/>
<path d="M16 13.3334V14.6667M16 22.6667V24V22.6667Z" stroke="currentColor" stroke-width="1.5" stroke-linecap="round" stroke-linejoin="round"/>
</svg>
