<svg width="92" height="92" viewBox="0 0 92 92" fill="none" xmlns="http://www.w3.org/2000/svg">
<path d="M20.4029 13.5293C9.15288 13.5293 0.00146484 22.6807 0.00146484 33.9309C0.00146484 44.7837 8.51837 53.6851 19.2195 54.3001C19.4048 56.3005 19.2658 61.7459 14.0479 69.3208C13.6534 69.8922 13.725 70.6629 14.2149 71.1528C16.3502 73.288 17.6698 74.6328 18.5934 75.5734C19.8022 76.8032 20.3539 77.3647 21.161 78.0975C21.4347 78.3459 21.78 78.4708 22.1269 78.4708C22.4637 78.4708 22.7992 78.3529 23.0702 78.1185C32.1627 70.2066 42.2631 53.8592 40.8017 33.8269C39.9454 22.0659 31.3667 13.5293 20.4029 13.5293ZM22.1408 75.0694C21.7493 74.6834 21.3028 74.2286 20.6444 73.5589C19.8443 72.7434 18.7465 71.6259 17.0816 69.9553C23.4142 60.1974 22.218 53.2473 21.6945 52.2505C21.4459 51.7774 20.9364 51.4587 20.4029 51.4587C10.7392 51.4587 2.87647 43.5961 2.87647 33.9309C2.87647 24.267 10.7392 16.4043 20.4029 16.4043C29.8169 16.4043 37.1897 23.8192 37.9351 34.0347C39.5776 56.5659 26.1867 71.1949 22.1408 75.0694Z" fill="#F3F4F6"/>
<path d="M91.8568 33.8269V33.8255C90.9977 22.0659 82.4177 13.5293 71.4567 13.5293C60.2066 13.5293 51.0537 22.6807 51.0537 33.9309C51.0537 44.7837 59.572 53.6851 70.2747 54.3001C70.46 56.2991 70.3195 61.7416 65.1002 69.3208C64.7058 69.8922 64.7774 70.6629 65.2673 71.1528C67.3941 73.2796 68.7108 74.6216 69.6345 75.5607C70.8488 76.7989 71.4034 77.3632 72.2147 78.0988C72.4884 78.3459 72.8351 78.4708 73.1806 78.4708C73.5175 78.4708 73.853 78.3529 74.1238 78.117C83.2163 70.2052 93.3168 53.8579 91.8568 33.8269ZM73.1945 75.0694C72.8001 74.6806 72.3495 74.223 71.6854 73.5464C70.8853 72.732 69.7918 71.6175 68.1338 69.9553C74.4664 60.196 73.2718 53.2473 72.7496 52.2505C72.5011 51.7789 71.9902 51.4587 71.4567 51.4587C61.7914 51.4587 53.9287 43.5961 53.9287 33.9309C53.9287 24.267 61.7914 16.4043 71.4567 16.4043C80.8692 16.4043 88.2434 23.8192 88.9902 34.0361V34.0347C90.6312 56.563 77.2403 71.1949 73.1945 75.0694Z" fill="#F3F4F6"/>
</svg>
