<svg width="100%" height="100%" viewBox="0 0 64 64" fill="none" xmlns="http://www.w3.org/2000/svg">
<path d="M24 40L40 24" stroke="currentColor" stroke-width="2.75" stroke-linecap="round" stroke-linejoin="round"/>
<path d="M25.3333 26.6667C26.0697 26.6667 26.6667 26.0697 26.6667 25.3333C26.6667 24.597 26.0697 24 25.3333 24C24.597 24 24 24.597 24 25.3333C24 26.0697 24.597 26.6667 25.3333 26.6667Z" fill="currentColor" stroke="currentColor" stroke-width="2.75" stroke-linecap="round" stroke-linejoin="round"/>
<path d="M38.6666 40C39.403 40 39.9999 39.403 39.9999 38.6666C39.9999 37.9303 39.403 37.3333 38.6666 37.3333C37.9302 37.3333 37.3333 37.9303 37.3333 38.6666C37.3333 39.403 37.9302 40 38.6666 40Z" fill="currentColor" stroke="currentColor" stroke-width="2.75" stroke-linecap="round" stroke-linejoin="round"/>
<path d="M13.3333 19.2C13.3333 17.6441 13.9514 16.1519 15.0516 15.0516C16.1519 13.9514 17.6441 13.3333 19.2 13.3333H21.8667C23.4157 13.3325 24.9016 12.7189 26 11.6267L27.8667 9.76001C28.4119 9.21174 29.0601 8.77665 29.774 8.47976C30.4879 8.18287 31.2535 8.03003 32.0267 8.03003C32.7999 8.03003 33.5654 8.18287 34.2794 8.47976C34.9933 8.77665 35.6415 9.21174 36.1867 9.76001L38.0533 11.6267C39.1518 12.7189 40.6376 13.3325 42.1867 13.3333H44.8533C46.4093 13.3333 47.9015 13.9514 49.0017 15.0516C50.1019 16.1519 50.72 17.6441 50.72 19.2V21.8667C50.7209 23.4157 51.3344 24.9016 52.4267 26L54.2933 27.8667C54.8416 28.4119 55.2767 29.0601 55.5736 29.774C55.8705 30.4879 56.0233 31.2535 56.0233 32.0267C56.0233 32.7999 55.8705 33.5654 55.5736 34.2794C55.2767 34.9933 54.8416 35.6415 54.2933 36.1867L52.4267 38.0533C51.3344 39.1518 50.7209 40.6376 50.72 42.1867V44.8533C50.72 46.4093 50.1019 47.9015 49.0017 49.0017C47.9015 50.1019 46.4093 50.72 44.8533 50.72H42.1867C40.6376 50.7209 39.1518 51.3344 38.0533 52.4267L36.1867 54.2933C35.6415 54.8416 34.9933 55.2767 34.2794 55.5736C33.5654 55.8705 32.7999 56.0233 32.0267 56.0233C31.2535 56.0233 30.4879 55.8705 29.774 55.5736C29.0601 55.2767 28.4119 54.8416 27.8667 54.2933L26 52.4267C24.9016 51.3344 23.4157 50.7209 21.8667 50.72H19.2C17.6441 50.72 16.1519 50.1019 15.0516 49.0017C13.9514 47.9015 13.3333 46.4093 13.3333 44.8533V42.1867C13.3325 40.6376 12.7189 39.1518 11.6267 38.0533L9.76001 36.1867C9.21174 35.6415 8.77665 34.9933 8.47976 34.2794C8.18287 33.5654 8.03003 32.7999 8.03003 32.0267C8.03003 31.2535 8.18287 30.4879 8.47976 29.774C8.77665 29.0601 9.21174 28.4119 9.76001 27.8667L11.6267 26C12.7189 24.9016 13.3325 23.4157 13.3333 21.8667V19.2" stroke="currentColor" stroke-width="2.75" stroke-linecap="round" stroke-linejoin="round"/>
</svg>
