<svg width="32" height="32" viewBox="0 0 32 32" fill="none" xmlns="http://www.w3.org/2000/svg">
<path d="M16 10.6666V16L18.6667 18.6666" stroke="currentColor" stroke-width="1.5" stroke-linecap="round" stroke-linejoin="round"/>
<path d="M4.06665 14.6666C4.36544 11.7334 5.73367 9.01279 7.91029 7.02392C10.0869 5.03506 12.9196 3.91715 15.8678 3.88347C18.8161 3.8498 21.6735 4.90272 23.895 6.84135C26.1165 8.77998 27.5465 11.4686 27.9122 14.3943C28.2779 17.3199 27.5537 20.2779 25.8778 22.7037C24.2019 25.1295 21.6915 26.8534 18.8257 27.5464C15.9599 28.2395 12.9392 27.8533 10.34 26.4614C7.74076 25.0695 5.74494 22.7694 4.73332 20M4.06665 26.6666V20H10.7333" stroke="currentColor" stroke-width="1.5" stroke-linecap="round" stroke-linejoin="round"/>
</svg>
